<svg xmlns="http://www.w3.org/2000/svg" viewBox="0 0 24 24" width="48px" height="48px"> <!-- Removed fill from here -->
  <path d="M0 0h24v24H0z" fill="none"/>
  <path fill="currentColor" d="M11.8 10.9c-2.27-.59-3-1.2-3-2.15 0-.96.73-1.65 2.3-1.65 1.72 0 2.61.85 2.68 2.3h2.13c-.08-2.02-1.38-3.94-3.85-4.4V3h-2.1v2.07C8.07 5.58 6.4 7.1 6.4 9.15c0 1.91 1.44 3.07 3.9 3.65 2.3.55 2.91 1.23 2.91 2.27 0 1.05-.79 1.78-2.48 1.78-1.91 0-2.84-.93-2.93-2.46H5.85c.1 2.42 1.74 4.15 4.03 4.51V21h2.1v-2.04c2.77-.43 4.45-2.07 4.45-4.33.01-2.02-1.22-3.39-3.98-4.04z"/>
</svg>
